<?xml version="1.0" encoding="UTF-8"?>
<svg width="120px" height="120px" viewBox="0 0 120 120" version="1.1" xmlns="http://www.w3.org/2000/svg" xmlns:xlink="http://www.w3.org/1999/xlink">
    <title>favicon</title>
    <g id="favicon" stroke="none" stroke-width="1" fill="none" fill-rule="evenodd">
        <path d="M60.0001276,11.0032134 L60.8244362,11.0099844 C87.699749,11.451792 109.414757,33.4591248 109.981326,60.7541213 L109.99,61.491 L109.999579,61.7105622 C110.073413,64.4281905 109.019838,67.0630772 107.060566,68.9694636 L66.6539,108.285462 C62.9385136,111.900562 57.0617416,111.900562 53.3463552,108.285462 L12.9396889,68.9694636 C12.4851977,68.5272401 12.0750885,68.0409355 11.7152084,67.5176822 C11.1110505,66.6392574 10.6603924,65.6763759 10.3725025,64.6680784 C10.0751535,64.0471833 9.95241668,63.3532479 10.020949,62.6670256 C9.99980494,62.3678145 9.99250822,62.0662425 9.99917838,61.763933 L10.008,61.565 L10.0189512,60.7530656 C10.5918451,33.1799998 32.7462579,11.0032134 60.0001276,11.0032134 Z M74.9917451,66.9132961 L74.8084073,67.0238296 C70.2724706,69.7322348 65.1305476,71.0871068 59.4564325,71.0871068 C53.705646,71.0871068 48.501531,69.6953719 43.9209142,66.9132961 C39.3412614,69.6951691 34.1368072,71.0871068 28.3856016,71.0871068 C27.4907185,71.0871068 26.6090729,71.0534064 25.7409542,70.9860109 L46.0380835,90.7337406 C50.0919054,88.1288482 54.9234101,86.6960147 59.9999999,86.6960147 C65.0761716,86.6960147 69.9072984,88.1286121 73.9609178,90.7330969 L94.3774761,70.8697515 C93.1231415,71.0146495 91.839433,71.0871068 90.5272635,71.0871068 C84.7764769,71.0871068 79.5723619,69.6953719 74.9917451,66.9132961 Z M60.0001276,18.4863449 C55.6822729,18.4863449 51.5133716,19.1435811 47.5849478,20.3656686 L47.5848644,60.3811062 C51.0271821,62.5298605 54.9570547,63.6034943 59.4564325,63.6034943 C63.8888625,63.6034943 67.768609,62.5615728 71.1740182,60.4763083 L71.1741346,20.000644 C67.6126686,19.0132144 63.8661027,18.4863449 60.0001276,18.4863449 Z M78.6571565,22.8760543 L78.6564198,60.3815584 C82.0985644,62.5300112 86.0282013,63.6034943 90.5272635,63.6034943 C95.0634538,63.6034943 99.0207818,62.5122204 102.483226,60.3281489 C101.926794,43.8410317 92.3544875,29.7118176 78.6571565,22.8760543 Z M40.1016024,23.5216561 C26.9115882,30.6617046 17.8374821,44.6801913 17.5008896,60.9120419 L17.4989001,60.9591851 C20.7010565,62.7224263 24.3096494,63.6034943 28.3856016,63.6034943 C32.8176493,63.6034943 36.6971088,62.5617525 40.1023061,60.4768479 L40.1016024,23.5216561 Z" id="logo" fill="#000000" fill-rule="nonzero"></path>
    </g>
</svg>