<?xml version="1.0" encoding="UTF-8"?>
<svg width="160px" height="120px" viewBox="0 0 160 120" version="1.1" xmlns="http://www.w3.org/2000/svg" xmlns:xlink="http://www.w3.org/1999/xlink">
    <title>cloud3</title>
    <g id="cloud3" stroke="none" stroke-width="1" fill="none" fill-rule="evenodd">
        <g transform="translate(3.000000, 6.000000)" fill="#FFFFFF" id="Combined-Shape" stroke="#090909" stroke-width="1.2">
            <path d="M70.0215054,0.6 C60.8601808,0.6 52.3935853,3.57466665 45.5351504,8.61109454 C38.5009823,13.7765704 33.1580553,21.1103862 29.9493914,30.0477159 C21.7556673,30.454951 14.4019488,34.0530459 9.10483389,39.624695 C3.83441116,45.1682684 0.6,52.6657763 0.6,60.9187097 C0.6,69.4541814 4.05968349,77.1816008 9.65323491,82.7751522 C15.2467863,88.3687036 22.9742057,91.8283871 31.5096774,91.8283871 C34.2649387,91.8283871 36.9360218,91.468001 39.4775408,90.7918795 C39.6643077,90.7421939 39.8508346,90.6906809 40.0370969,90.6373341 C40.090695,90.8221959 40.1463128,91.0073644 40.2042728,91.1920793 C41.7458585,96.1050143 44.8307569,100.334728 48.8905137,103.313748 C52.8486015,106.218164 57.7336994,107.933333 63.0193548,107.933333 C71.7733547,107.933333 79.4283357,103.22834 83.5934567,96.2097905 C83.722854,95.991746 83.8486777,95.7718147 83.9708991,95.550094 C84.1508834,95.7283308 84.3335383,95.9043605 84.5189119,96.0774409 C88.7905875,100.065838 94.5257423,102.506667 100.830968,102.506667 C106.418243,102.506667 111.557924,100.590123 115.628068,97.3783413 C119.783057,94.0996082 122.823894,89.4714489 124.088288,84.1547041 C124.146631,83.9093758 124.200936,83.6636539 124.251232,83.4176258 C124.474797,83.532412 124.700208,83.6437449 124.92735,83.7505649 C127.469354,84.9460148 130.3084,85.6139785 133.303441,85.6139785 C138.745168,85.6139785 143.671727,83.4082828 147.237854,79.8421554 C150.803982,76.276028 153.009677,71.3494689 153.009677,65.9077419 C153.009677,61.491123 151.556843,57.4137902 149.102703,54.1278931 C146.588253,50.7612453 143.023101,48.2250081 138.892835,47.0059378 C138.723682,46.9560112 138.554125,46.9084546 138.38421,46.8632578 C138.414496,46.6887897 138.442995,46.5144893 138.469513,46.3402194 C138.649493,45.1574364 138.742796,43.9461751 138.742796,42.7131183 C138.742796,36.111237 136.066855,30.1343553 131.740443,25.8079439 C127.414032,21.4815325 121.43715,18.8055914 114.835269,18.8055914 C111.712101,18.8055914 108.728757,19.4042789 105.995376,20.4934927 C105.839388,20.5556518 105.683907,20.6195305 105.528963,20.6851293 C105.441218,20.5417412 105.352596,20.3965369 105.263057,20.2518434 C97.9645477,8.45752404 84.910695,0.6 70.0215054,0.6 Z"></path>
        </g>
    </g>
</svg>