<?xml version="1.0" encoding="UTF-8"?>
<svg width="240px" height="160px" viewBox="0 0 240 160" version="1.1" xmlns="http://www.w3.org/2000/svg" xmlns:xlink="http://www.w3.org/1999/xlink">
    <title>cloud1</title>
    <g id="cloud1" stroke="none" stroke-width="1" fill="none" fill-rule="evenodd">
        <path d="M106.1133,6.6 C93.2206867,6.6 81.4815895,11.5388716 72.684923,19.6279518 C63.8157596,27.7836974 57.9374053,39.1416471 56.8840461,51.8686986 C56.8619297,52.135917 56.8420105,52.4028897 56.8242748,52.6695973 C56.5771293,52.5704948 56.328476,52.4742286 56.0787085,52.3822296 C53.4504544,51.4141431 50.609597,50.8857143 47.6453202,50.8857143 C40.9074462,50.8857143 34.8074462,53.6167773 30.3919147,58.0323088 C25.9763832,62.4478403 23.2453202,68.5478403 23.2453202,75.2857143 C23.2453202,76.6795868 23.3621415,78.0461632 23.5912856,79.3759438 C23.632376,79.6144018 23.677266,79.8527658 23.7259617,80.0909757 C23.4854933,80.0823102 23.2432696,80.0778325 23,80.0778325 C17.6428379,80.0778325 12.7928379,82.2492515 9.28212845,85.759961 C5.77141896,89.2706704 3.6,94.1206704 3.6,99.4778325 C3.6,104.834995 5.77141896,109.684995 9.28212845,113.195704 C12.7928379,116.706414 17.6428379,118.877833 23,118.877833 C25.003738,118.877833 26.9365545,118.574195 28.7545602,118.01102 C28.9420864,117.952928 29.1290592,117.891869 29.3154115,117.827828 C29.3754516,118.015917 29.437187,118.204323 29.5006212,118.392352 C31.8256907,125.284189 36.2749089,131.198304 42.0692107,135.356514 C47.7112734,139.405471 54.6290114,141.789163 62.1034483,141.789163 C72.4324816,141.789163 81.6982134,137.236759 88.0023936,130.029384 C88.167078,129.841106 88.3296977,129.651065 88.4902238,129.459301 C88.6383111,129.661086 88.7868679,129.865039 88.9367412,130.068077 C99.7540249,144.722592 117.146275,154.227586 136.758621,154.227586 C148.985369,154.227586 160.349386,150.533618 169.795132,144.200432 C179.528776,137.674216 187.225718,128.345897 191.730846,117.369811 C191.817462,117.158784 191.902811,116.947362 191.986892,116.735555 C192.183023,116.850044 192.380109,116.963073 192.57835,117.073729 C196.813012,119.437479 201.692595,120.784236 206.8867,120.784236 C215.005285,120.784236 222.355285,117.493529 227.675639,112.173176 C232.995992,106.852822 236.2867,99.5028223 236.2867,91.3842365 C236.2867,83.2656506 232.995992,75.9156506 227.675639,70.5952971 C222.355285,65.2749435 215.005285,61.9842365 206.8867,61.9842365 C206.238292,61.9842365 205.594787,62.0052173 204.95779,62.0473762 C204.753441,62.0609008 204.548715,62.0766742 204.343664,62.0946829 C204.337192,61.8898444 204.328963,61.6840711 204.318883,61.4780005 C203.872524,52.352972 199.870397,44.1622986 193.66908,38.2618584 C187.498547,32.3907092 179.150386,28.7871921 169.960591,28.7871921 C163.06377,28.7871921 156.640911,30.8166511 151.258183,34.312083 C151.068617,34.4351826 150.880189,34.5602003 150.692928,34.6871235 C150.594438,34.4832708 150.494905,34.2790932 150.393915,34.0755191 C146.288124,25.7991961 139.930333,18.8379579 132.121996,13.9930175 C124.568222,9.30602939 115.656756,6.6 106.1133,6.6 Z" id="Combined-Shape" stroke="#090909" stroke-width="1.2" fill="#FFFFFF"></path>
    </g>
</svg>