<?xml version="1.0" encoding="UTF-8"?>
<svg width="120px" height="80px" viewBox="0 0 120 80" version="1.1" xmlns="http://www.w3.org/2000/svg" xmlns:xlink="http://www.w3.org/1999/xlink">
    <title>cloud2</title>
    <g id="cloud2" stroke="none" stroke-width="1" fill="none" fill-rule="evenodd">
        <path d="M55.7419355,3.6 C49.5378766,3.6 43.8042608,5.61438545 39.1597578,9.02509027 C34.396252,12.5231851 30.7779986,17.4896384 28.4299948,23.677729 C22.8938972,23.952752 17.9253752,26.383792 14.3463663,30.148204 C10.7853555,33.8936856 8.6,38.959382 8.6,44.5354839 C8.6,50.3024056 10.9375069,55.5233733 14.7167442,59.3026106 C18.4959815,63.081848 23.7169492,65.4193548 29.483871,65.4193548 C31.3452626,65.4193548 33.1497977,65.1759452 34.8675211,64.7191658 C35.0553971,64.6692055 35.2429066,64.6165141 35.4299959,64.5610768 C35.4812892,64.7477195 35.5359881,64.9338877 35.5941926,65.1193769 C36.6329977,68.4298945 38.71182,71.2799548 41.4474327,73.2873115 C44.1144802,75.2443561 47.4061744,76.4 50.9677419,76.4 C56.8664875,76.4 62.0246359,73.229587 64.8311296,68.4999715 C64.9618275,68.2797142 65.0871136,68.0566006 65.2069229,67.8308517 C65.3861654,68.0134079 65.5693263,68.1927413 65.7566057,68.3676074 C68.6350155,71.0552301 72.4996307,72.7 76.7483871,72.7 C80.5130976,72.7 83.9762537,71.4087242 86.7187889,69.2445362 C89.5184196,67.035293 91.5675496,63.9167903 92.419774,60.3339391 C92.4789158,60.0853001 92.5319038,59.8360625 92.5788043,59.5864263 C92.802621,59.7071877 93.0294139,59.8219342 93.2588356,59.9298298 C94.9674017,60.7333574 96.8756407,61.1822581 98.8887097,61.1822581 C102.54626,61.1822581 105.85755,59.6997429 108.254453,57.3028401 C110.651356,54.9059374 112.133871,51.5946471 112.133871,47.9370968 C112.133871,44.9686208 111.15746,42.2281572 109.508063,40.0195263 C107.817988,37.7564253 105.421744,36.0513086 102.645696,35.2314789 C102.475582,35.1812404 102.304859,35.1345676 102.133631,35.0914383 C102.166203,34.9161973 102.195814,34.7409888 102.222456,34.5658262 C102.343639,33.7690844 102.406452,32.9531696 102.406452,32.1225806 C102.406452,27.6740161 100.603315,23.6465967 97.6880363,20.7313185 C94.7727581,17.8160403 90.7453388,16.0129032 86.2967742,16.0129032 C84.1923416,16.0129032 82.1821078,16.4162384 80.3394755,17.149478 C80.1830362,17.2117299 80.0273529,17.2765397 79.8724892,17.3439091 C79.7852772,17.1980553 79.6970335,17.0525196 79.6074345,16.9077392 C74.664704,8.92092999 65.8247615,3.6 55.7419355,3.6 Z" id="Combined-Shape" stroke="#090909" stroke-width="1.2" fill="#FFFFFF"></path>
    </g>
</svg>