<?xml version="1.0" encoding="UTF-8"?>
<svg width="90px" height="60px" viewBox="0 0 90 60" version="1.1" xmlns="http://www.w3.org/2000/svg" xmlns:xlink="http://www.w3.org/1999/xlink">
    <title>cloud4</title>
    <g id="cloud4" stroke="none" stroke-width="1" fill="none" fill-rule="evenodd">
        <g transform="translate(2.000000, 3.000000)" fill="#FFFFFF" id="Combined-Shape" stroke="#090909" stroke-width="1.2">
            <path d="M37.8963412,0.6 C33.2569045,0.6 29.0325598,2.3773047 25.8673218,5.28824563 C22.6761874,8.22300239 20.5612415,12.3098804 20.183127,16.8894201 C20.160118,17.1680944 20.1437525,17.4460241 20.1339081,17.7230379 C19.885763,17.6042132 19.6333887,17.497267 19.3776885,17.4030359 C18.4522648,17.0619968 17.4519134,16.8759463 16.4081091,16.8759463 C14.036589,16.8759463 11.8895804,17.8371947 10.3354519,19.3913233 C8.78132341,20.9454518 7.82007494,23.0924603 7.82007494,25.4639805 C7.82007494,25.9543206 7.86111192,26.4350649 7.94171195,26.9027788 C7.9845012,27.1510806 8.03902687,27.3991107 8.10532476,27.6463113 C7.85751165,27.6188344 7.60562323,27.6046735 7.35042735,27.6046735 C5.48634831,27.6046735 3.79874147,28.3602408 2.5771544,29.5818279 C1.35556732,30.803415 0.6,32.4910218 0.6,34.3551008 C0.6,36.2191799 1.35556732,37.9067867 2.5771544,39.1283738 C3.79874147,40.3499609 5.48634831,41.1055282 7.35042735,41.1055282 C8.04769917,41.1055282 8.72030859,40.9999508 9.35295266,40.8038811 C9.5431243,40.7449429 9.73165006,40.6772188 9.91795544,40.6006059 C9.97332993,40.796257 10.0336758,40.9912904 10.0990906,41.185194 C10.9279814,43.6422063 12.5143041,45.7505189 14.579988,47.2329437 C16.5912632,48.6763224 19.0573242,49.5259315 21.7217801,49.5259315 C25.4042179,49.5259315 28.7075425,47.9028052 30.9535699,45.3327028 C31.1216382,45.1403843 31.2836585,44.9429094 31.4393884,44.7405976 C31.585306,44.9531289 31.7348024,45.1635029 31.8881139,45.3712257 C35.7945774,50.6641207 42.0758881,54.097318 49.1591512,54.097318 C53.5745962,54.097318 57.6785347,52.7634245 61.0896609,50.476394 C64.6050812,48.1194382 67.3849631,44.7506195 69.0118543,40.7868632 C69.1006263,40.5705791 69.1857109,40.3531439 69.2671087,40.1346534 C69.4610963,40.2597536 69.6585476,40.3786948 69.8593431,40.4907687 C71.3608645,41.3288423 73.0910635,41.8061724 74.9327186,41.8061724 C77.8116799,41.8061724 80.4180902,40.6392428 82.3047601,38.7525728 C84.19143,36.8659029 85.3583596,34.2594926 85.3583596,31.3805313 C85.3583596,28.5015701 84.19143,25.8951598 82.3047601,24.0084899 C80.4180902,22.1218199 77.8116799,20.9548903 74.9327186,20.9548903 C74.7034274,20.9548903 74.4758684,20.9622808 74.2505464,20.9778173 C74.0427727,20.9921438 73.8340655,21.0135923 73.6247356,21.0415218 C73.6252124,20.8317436 73.62035,20.6205749 73.6099881,20.4085226 C73.4510278,17.1554651 72.0242529,14.235565 69.8136058,12.1320661 C67.6138625,10.0389426 64.6377439,8.75426719 61.3615848,8.75426719 C58.9030342,8.75426719 56.6133797,9.47758524 54.694814,10.7236479 C54.5021845,10.8487561 54.3128482,10.9794248 54.1270735,11.1155495 C54.0324423,10.904413 53.9335864,10.6948844 53.83051,10.4871028 C52.3529912,7.50871863 50.0650083,5.00362876 47.2550618,3.26009226 C44.5369877,1.57356144 41.3303394,0.6 37.8963412,0.6 Z"></path>
        </g>
    </g>
</svg>