<?xml version="1.0" encoding="UTF-8"?>
<svg width="200px" height="32px" viewBox="0 0 200 32" version="1.1" xmlns="http://www.w3.org/2000/svg" xmlns:xlink="http://www.w3.org/1999/xlink">
    <title>Web Explorer</title>
    <g id="creativedreams" stroke="none" stroke-width="1" fill="none" fill-rule="evenodd">
        <path d="M16.626465,9 C15.3400159,9 14.1978731,9.29703024 13.1950749,9.89033144 C12.1933444,10.4830009 11.4123844,11.3058545 10.8483969,12.3633162 C10.2831564,13.4231273 10,14.6338627 10,16 C10,17.3661373 10.2831564,18.5768727 10.8483969,19.6366838 C11.4123844,20.6941455 12.1933444,21.5169991 13.1950749,22.1096686 C14.1978731,22.7029698 15.3400159,23 16.626465,23 C18.3951105,23 19.8357008,22.5166433 20.9599645,21.552635 C21.904877,20.7424127 22.563235,19.6923275 22.9358146,18.4003206 L23.0469042,17.9641533 L20.0476159,17.9641533 L20.0167637,18.0407673 C19.8230347,18.4634752 19.5657116,18.8265741 19.2457349,19.1282482 L19.046238,19.3018672 L18.8317493,19.460657 C18.24146,19.8631361 17.549808,20.0638649 16.7638156,20.0638649 C15.6803015,20.0638649 14.7907943,19.6852644 14.1148899,18.9312273 C13.4431947,18.181886 13.1086082,17.1998034 13.1086082,16 C13.1086082,14.7865464 13.4432495,13.8006786 14.1158167,13.0576491 C14.7917595,12.3108902 15.6808642,11.9361351 16.7638156,11.9361351 C17.4938642,11.9361351 18.1427246,12.111255 18.7047365,12.4626159 C19.1069466,12.7140713 19.4427293,13.0375132 19.7135173,13.4366997 L19.8682021,13.6853309 L19.9130684,13.7733828 L22.9558043,13.7733828 L22.9482146,13.7381305 C22.640593,12.608587 22.126435,11.6624842 21.4047076,10.8956083 L21.124328,10.6164228 L20.8553384,10.3794812 C19.7501581,9.46074738 18.3441774,9 16.626465,9 Z M184.511583,9 C183.48892,9 182.591563,9.17433604 181.817624,9.52113076 C181.051833,9.86427428 180.461361,10.3396241 180.040644,10.9481885 C179.623483,11.551609 179.415596,12.2367259 179.415596,13.0119489 C179.415596,14.200946 179.782001,15.1481505 180.516372,15.8725567 C181.256133,16.6022794 182.491959,17.072289 184.227202,17.2677809 C185.118153,17.3650112 185.768645,17.5086879 186.188136,17.7062153 C186.669424,17.9328421 186.930635,18.3109455 186.930635,18.8063453 C186.930635,19.2999365 186.701111,19.6979238 186.266713,19.9710743 C185.863616,20.2245428 185.317595,20.3465183 184.629312,20.3465183 C183.895436,20.3465183 183.316557,20.1976091 182.896665,19.8890043 C182.572731,19.6509245 182.363711,19.3358271 182.27554,18.9437425 L182.253707,18.8121137 L179.283851,18.8121137 L179.286499,18.8433558 C179.340979,19.8792632 179.665212,20.7276035 180.26073,21.3994217 L180.469285,21.6168384 L180.67633,21.8032197 C181.622043,22.5982279 182.949635,23 184.668555,23 C185.731968,23 186.670121,22.8250778 187.484632,22.4769478 C188.288913,22.1331907 188.907837,21.6508308 189.347238,21.0291635 C189.782883,20.4128114 190,19.7084731 190,18.907293 C190,17.683451 189.602062,16.7311521 188.802999,16.0273028 C188.052807,15.366502 186.851967,14.9208347 185.19995,14.7016586 L184.777546,14.6515897 C183.969186,14.5670038 183.392787,14.4240917 183.036081,14.2099898 C182.636769,13.9703146 182.426096,13.5999966 182.426096,13.1330861 C182.426096,12.6574887 182.635147,12.2711826 183.033862,12.0032594 C183.405966,11.7532178 183.912237,11.6332921 184.550826,11.6332921 C185.194187,11.6332921 185.712091,11.7731304 186.098747,12.0617654 C186.397952,12.2851203 186.591169,12.5796299 186.672701,12.9453779 L186.688169,13.0465595 L189.597759,13.0465595 L189.597721,13.0176032 C189.564891,12.4970118 189.449991,12.0181633 189.253056,11.5792807 L189.125052,11.3207327 L188.97736,11.0716913 C188.555585,10.4175693 187.965127,9.91075171 187.200385,9.54904046 C186.427838,9.18363768 185.532351,9 184.511583,9 Z M84.4527293,9.22064277 L81.126883,9.22064277 L87.0553828,22.9192419 L88.2621058,22.9192419 L94.1597718,9.22064277 L90.7876748,9.22064277 L89.1423215,13.2229871 L87.6657219,17.8545404 L86.1263396,13.2465472 L84.4527293,9.22064277 Z M128.378387,9.22199339 L122.818543,9.22064277 L122.818543,22.7779151 L125.848665,22.7779151 L125.848665,18.4169757 L128.051881,18.4169757 L128.297874,18.567122 L130.532601,22.7779151 L133.949547,22.7779151 L130.997966,17.8155535 L131.247982,17.667871 C131.91186,17.2757233 132.425479,16.7535264 132.792947,16.0981435 C133.160485,15.4426357 133.344083,14.7184675 133.344083,13.920478 C133.344083,12.9892856 133.134985,12.1729773 132.717656,11.4657127 C132.300089,10.7580465 131.720881,10.2093707 130.975201,9.81622554 C130.412779,9.51969996 129.78772,9.33394219 129.102975,9.25963537 L128.755641,9.2317727 L128.378387,9.22199339 Z M78.8465326,9.22064277 L75.8164105,9.22064277 L75.8164105,22.7779151 L78.8465326,22.7779151 L78.8465326,9.22064277 Z M57.311822,9.08075814 L56.0952883,9.08075814 L49.784169,22.7779151 L53.1450537,22.7779151 L53.8385562,21.1537079 L54.0952955,20.9810466 L59.2753748,20.9810466 L59.5310468,21.1512332 L60.2410335,22.7779151 L63.5766906,22.7779151 L57.311822,9.08075814 Z M47.9705302,9.22064277 L39.956544,9.22064277 L39.956544,22.7779151 L48.1457223,22.7779151 L48.1457223,20.0436753 L42.9670446,20.0436753 L42.9670446,17.2661722 L47.5766985,17.2661722 L47.5766985,14.6112485 L42.9670446,14.6126906 L42.9670446,11.9361351 L47.9705302,11.9361351 L47.9705302,9.22064277 Z M31.4897592,9.22199339 L25.9299153,9.22064277 L25.9299153,22.7779151 L28.9586359,22.7779151 L28.9600375,18.4169757 L31.163253,18.4169757 L31.4092465,18.567122 L33.6439728,22.7779151 L37.060919,22.7779151 L34.1093384,17.8155535 L34.3593542,17.667871 C35.0232316,17.2757233 35.5368512,16.7535264 35.904319,16.0981435 C36.2718567,15.4426357 36.4554552,14.7184675 36.4554552,13.920478 C36.4554552,12.9892856 36.2463573,12.1729773 35.8290279,11.4657127 C35.4114616,10.7580465 34.8322536,10.2093707 34.086573,9.81622554 C33.5241514,9.51969996 32.8990925,9.33394219 32.2143466,9.25963537 L31.8670134,9.2317727 L31.4897592,9.22199339 Z M73.2179112,9.22064277 L63.5557179,9.22064277 L63.5557179,11.9563247 L66.8717535,11.9563247 L66.8717535,22.7779151 L69.9018757,22.7779151 L69.9018757,11.9563247 L73.2179112,11.9563247 L73.2179112,9.22064277 Z M154.20045,9.08075814 L152.983916,9.08075814 L146.672797,22.7779151 L150.033682,22.7779151 L150.727184,21.1537079 L150.983923,20.9810466 L156.164003,20.9810466 L156.419675,21.1512332 L157.129661,22.7779151 L160.465319,22.7779151 L154.20045,9.08075814 Z M144.859158,9.22064277 L136.845172,9.22064277 L136.845172,22.7779151 L145.035752,22.7779151 L145.035752,20.0436753 L139.855673,20.0436753 L139.855673,17.2661722 L144.466728,17.2661722 L144.466728,14.6112485 L139.855673,14.6126906 L139.855673,11.9361351 L144.859158,11.9361351 L144.859158,9.22064277 Z M113.037705,9.22200799 L107.869704,9.22064277 L107.869704,22.7779151 L113.044177,22.7779151 C114.386255,22.7779151 115.567289,22.4959832 116.591222,21.9336456 C117.610257,21.3739983 118.398624,20.5820468 118.961023,19.5532827 C119.525248,18.5211767 119.807992,17.3316004 119.807992,15.9798105 C119.807992,14.641789 119.525405,13.4625653 118.961392,12.4372966 C118.399025,11.4150208 117.610541,10.6261577 116.591222,10.0663544 C115.795139,9.62915051 114.904252,9.36150274 113.921005,9.26414648 L113.493965,9.23285052 L113.037705,9.22200799 Z M104.427479,9.22064277 L96.413493,9.22064277 L96.413493,22.7779151 L104.604073,22.7779151 L104.604073,20.0436753 L99.4239936,20.0436753 L99.4239936,17.2661722 L104.035049,17.2661722 L104.035049,14.6112485 L99.4239936,14.6126906 L99.4239936,11.9361351 L104.427479,11.9361351 L104.427479,9.22064277 Z M163.655266,9.18170581 L162.602712,9.18170581 L162.602712,22.7779151 L165.632834,22.7779151 L165.632887,19.1551487 L165.560337,15.2982493 L169.405771,19.3456943 L169.423991,19.3456943 L173.295062,15.296375 L173.198329,19.1495674 L173.198329,22.7779151 L176.228451,22.7779151 L176.228451,9.18170581 L175.175897,9.18170581 L169.425746,15.4297427 L163.655266,9.18170581 Z M113.024555,11.9563247 C114.171153,11.9563247 115.080134,12.3157714 115.731705,13.0377768 C116.378942,13.7549795 116.699384,14.7405105 116.699384,15.9798105 C116.699384,17.232025 116.379351,18.2271555 115.732668,18.9510564 C115.14037,19.6140781 114.334927,19.9745966 113.331506,20.0346659 L113.024555,20.0436753 L110.899826,20.0436753 L110.899826,11.9563247 L113.024555,11.9563247 Z M55.0012253,18.367944 L56.7110559,13.811588 L58.343167,18.367944 L55.0012253,18.367944 Z M151.889853,18.367944 L153.599684,13.811588 L155.231795,18.367944 L151.889853,18.367944 Z M31.3202251,11.8351875 C31.949461,11.8351875 32.4563798,12.0103495 32.8265801,12.3674594 C33.2004521,12.7281111 33.38609,13.2255381 33.38609,13.8397198 C33.38609,14.4530474 33.2010474,14.9528458 32.8288126,15.3198977 C32.504816,15.6393829 32.0754188,15.8166855 31.5508415,15.8560192 L31.3202251,15.8644417 L28.9600375,15.8644417 L28.9600375,11.8351875 L31.3202251,11.8351875 Z M128.208853,11.8351875 C128.838089,11.8351875 129.345008,12.0103495 129.715208,12.3674594 C130.08908,12.7281111 130.274718,13.2255381 130.274718,13.8397198 C130.274718,14.4530474 130.089675,14.9528458 129.71744,15.3198977 C129.393444,15.6393829 128.964047,15.8166855 128.439469,15.8560192 L128.208853,15.8644417 L125.848665,15.8644417 L125.848665,11.8351875 L128.208853,11.8351875 Z" id="CREATIVEDREAMS" fill="#090909" fill-rule="nonzero"></path>
    </g>
</svg>