<?xml version="1.0" encoding="UTF-8"?>
<svg width="32px" height="32px" viewBox="0 0 32 32" version="1.1" xmlns="http://www.w3.org/2000/svg" xmlns:xlink="http://www.w3.org/1999/xlink">
    <title>creativedreams-mark</title>
    <g id="creativedreams-mark" stroke="none" stroke-width="1" fill="none" fill-rule="evenodd">
        <g id="pencil" fill="#090909" fill-rule="nonzero">
            <path d="M12.8888889,27.0218894 L17.5829186,31.5555556 C18.5644811,30.2456013 19.1111111,28.6139985 19.1111111,26.8888889 C19.1111111,25.1637793 18.5644811,23.5321765 17.5829186,22.2222222 L12.8888889,27.0218894 Z" id="Path" transform="translate(16.000000, 26.888889) scale(-1, 1) rotate(270.000000) translate(-16.000000, -26.888889) "></path>
            <path d="M15.9991207,0.902008602 C24.2076139,0.902008602 30.8845224,7.56415604 31.0917834,15.8611078 L31.0965544,16.1810169 C31.145743,16.9679187 30.8290506,17.7972631 30.2191698,18.39072 L17.990235,30.2903328 C16.8783813,31.3722445 15.1198601,31.3722445 14.0080064,30.2903328 L1.77907158,18.39072 C1.64304784,18.2583593 1.52030484,18.1128022 1.41259312,17.956183 C1.23092346,17.6920246 1.09562322,17.4023522 1.00950515,17.0990101 C0.921601757,16.9161565 0.885153149,16.7115111 0.905292868,16.5091323 C0.901647809,16.4518244 0.899195272,16.3938587 0.898463625,16.335759 L0.903727558,16.118907 C0.942939788,7.73588902 7.68550824,0.902008602 15.9991207,0.902008602 Z M20.5371982,17.7524437 L20.2850973,17.9008762 C18.9618497,18.6477456 17.4723193,19.0213525 15.8354807,19.0213525 C14.0935087,19.0213525 12.5183757,18.5982112 11.1329524,17.7523435 C9.74837958,18.5982446 8.17330218,19.0213525 6.43139904,19.0213525 C6.12921345,19.0213525 5.83204854,19.0086189 5.5400237,18.9831539 L15.5422662,28.7136124 C15.8000813,28.9644847 16.1981601,28.9644847 16.4559753,28.7136124 L26.4976905,18.9441382 C26.0886922,18.9956123 25.6692018,19.0213525 25.2395623,19.0213525 C23.4976592,19.0213525 21.9225818,18.5982446 20.5371982,17.7524437 Z M3.10679965,15.8774247 L3.10508706,16.0084041 C4.08301728,16.5504798 5.18572141,16.8213525 6.43139904,16.8213525 C7.78548955,16.8213525 8.97063729,16.5012793 10.0102192,15.8607087 L10.0097854,4.60389691 C6.00816116,6.74804452 3.24340273,10.9741098 3.10679965,15.8774247 Z M15.9991207,3.1020086 C14.6808594,3.1020086 13.4083664,3.30391871 12.2099301,3.67917854 L12.2094636,15.8300086 L12.2768518,15.8730987 C13.3115813,16.5054065 14.4901488,16.8213525 15.8354807,16.8213525 C17.1895712,16.8213525 18.3747189,16.5012793 19.4143008,15.8607087 L19.4141675,3.56863109 C18.3261966,3.264317 17.1810547,3.1020086 15.9991207,3.1020086 Z M21.6144406,4.41272231 L21.6134636,15.8300086 L21.6809334,15.8730987 C22.7156629,16.5054065 23.8942305,16.8213525 25.2395623,16.8213525 C26.6243082,16.8213525 27.8323753,16.4866229 28.8887644,15.8167102 C28.7046503,10.7708828 25.7837935,6.47616054 21.6144406,4.41272231 Z" id="Combined-Shape"></path>
        </g>
    </g>
</svg>