<?xml version="1.0" encoding="UTF-8"?>
<svg width="24px" height="175px" viewBox="0 0 24 175" version="1.1" xmlns="http://www.w3.org/2000/svg" xmlns:xlink="http://www.w3.org/1999/xlink">
    <title>creativedreams-text</title>
    <g id="creativedreams-text" stroke="none" stroke-width="1" fill="none" fill-rule="evenodd">
        <path d="M-61.1834362,81 C-62.3126527,81 -63.3152003,81.2607265 -64.1954343,81.7815132 C-65.0747311,82.3017453 -65.7602403,83.0240278 -66.255296,83.9522442 C-66.7514516,84.8825229 -67,85.9452795 -67,87.1444444 C-67,88.3436094 -66.7514516,89.406366 -66.255296,90.3366447 C-65.7602403,91.2648611 -65.0747311,91.9871436 -64.1954343,92.5073757 C-63.3152003,93.0281623 -62.3126527,93.2888889 -61.1834362,93.2888889 C-59.6309586,93.2888889 -58.3664404,92.8646091 -57.3795867,92.018424 C-56.5501635,91.307229 -55.9722715,90.3854875 -55.6452294,89.2513926 L-55.5477174,88.8685345 L-58.1804261,88.8685345 L-58.2075074,88.9357846 C-58.3775584,89.3068282 -58.603431,89.6255484 -58.8842994,89.8903512 L-59.0594133,90.0427501 L-59.2476867,90.1821323 C-59.7658296,90.5354195 -60.3729463,90.7116147 -61.062873,90.7116147 C-62.0139576,90.7116147 -62.7947473,90.3792876 -63.3880411,89.7174106 C-63.9776402,89.0596555 -64.2713328,88.1976052 -64.2713328,87.1444444 C-64.2713328,86.0793019 -63.9775921,85.213929 -63.3872276,84.5617142 C-62.7939,83.9062259 -62.0134637,83.5772742 -61.062873,83.5772742 C-60.4220526,83.5772742 -59.8524973,83.7309905 -59.3591757,84.0394073 C-59.0061246,84.2601292 -58.711382,84.5440394 -58.4736904,84.8944364 L-58.3379115,85.1126794 L-58.2985289,85.1899693 L-55.6276829,85.1899693 L-55.6343449,85.1590257 C-55.9043684,84.1675375 -56.3556849,83.3370695 -56.9892011,82.6639228 L-57.2353121,82.41886 L-57.4714252,82.210878 C-58.4415279,81.4044338 -59.6756665,81 -61.1834362,81 Z M86.1823892,81 C85.2847189,81 84.4970382,81.1530283 83.817692,81.457437 C83.1454982,81.7586408 82.6271944,82.1758922 82.2578983,82.7100766 C81.8917238,83.2397457 81.709245,83.8411261 81.709245,84.5215996 C81.709245,85.5652748 82.0308674,86.3967099 82.6754823,87.0325776 C83.324828,87.6731119 84.4096082,88.0856759 85.9327664,88.2572743 C86.7148235,88.342621 87.285811,88.4687372 87.6540301,88.6421223 C88.0764947,88.8410503 88.3057795,89.1729411 88.3057795,89.607792 C88.3057795,90.0410554 88.1043086,90.3903998 87.7230036,90.6301652 C87.3691737,90.8526542 86.8898893,90.9597216 86.2857292,90.9597216 C85.6415492,90.9597216 85.133422,90.8290124 84.7648508,90.558126 C84.4805085,90.3491448 84.297035,90.0725593 84.2196411,89.7283962 L84.2004763,89.6128554 L81.5936027,89.6128554 L81.5959267,89.640279 C81.643748,90.5495755 81.9283526,91.2942297 82.451085,91.8839368 L82.6341505,92.0747804 L82.8158897,92.2383818 C83.6460151,92.9362222 84.8113467,93.2888889 86.3201759,93.2888889 C87.2536164,93.2888889 88.0771062,93.1353461 88.7920663,92.8297653 C89.4980457,92.5280229 90.0413234,92.1046182 90.4270202,91.5589324 C90.8094194,91.0179122 91,90.3996597 91,89.6964016 C91,88.6221403 90.6506992,87.7862335 89.9492989,87.1684102 C89.2907974,86.588374 88.2367262,86.1971772 86.7866226,86.0047892 L86.4158458,85.9608398 C85.7062854,85.8865922 85.200335,85.7611471 84.8872267,85.5732133 C84.5367194,85.3628317 84.3517956,85.0377748 84.3517956,84.6279311 C84.3517956,84.2104623 84.5352954,83.8713714 84.8852786,83.6361944 C85.2119034,83.4167134 85.6562969,83.3114453 86.2168359,83.3114453 C86.7815643,83.3114453 87.2361692,83.4341922 87.5755664,83.6875497 C87.8382027,83.8836056 88.0078037,84.1421196 88.0793705,84.4631651 L88.0929484,84.55198 L90.6469218,84.55198 L90.6468882,84.5265628 C90.6180711,84.0695992 90.5172145,83.6492767 90.3443495,83.2640352 L90.2319897,83.0370876 L90.1023495,82.8184846 C89.7321249,82.2443108 89.2138336,81.7994376 88.54256,81.4819355 C87.8644355,81.1611931 87.0783971,81 86.1823892,81 Z M-1.6470487,81.1936753 L-4.56640272,81.1936753 L0.637502676,93.2180012 L1.69673732,93.2180012 L6.87357748,81.1936753 L3.91362562,81.1936753 L2.46937105,84.7068442 L1.17324479,88.7723188 L-0.177990757,84.7275248 L-1.6470487,81.1936753 Z M36.9099175,81.1948609 L32.0296102,81.1936753 L32.0296102,93.0939477 L34.6893841,93.0939477 L34.6893841,89.266012 L36.6233177,89.266012 L36.8392453,89.3978071 L38.8008384,93.0939477 L41.8001579,93.0939477 L39.209326,88.738097 L39.4287843,88.6084645 C40.0115212,88.264246 40.462365,87.8058732 40.7849201,87.2305926 C41.1075365,86.6552025 41.2686952,86.0195437 41.2686952,85.3190862 C41.2686952,84.5017063 41.0851537,83.785169 40.7188312,83.1643478 C40.3523008,82.5431742 39.8438849,82.0615588 39.189343,81.7164646 C38.6956618,81.4561811 38.1469991,81.293127 37.5459443,81.2279022 L37.2410629,81.2034449 L36.9099175,81.1948609 Z M-6.56804362,81.1936753 L-9.22781749,81.1936753 L-9.22781749,93.0939477 L-6.56804362,93.0939477 L-6.56804362,81.1936753 Z M-25.470734,81.0708877 L-26.5385803,81.0708877 L-32.0783406,93.0939477 L-29.1282306,93.0939477 L-28.5194896,91.6682547 L-28.2941295,91.5166964 L-23.747171,91.5166964 L-23.5227478,91.6660825 L-22.8995372,93.0939477 L-19.9715716,93.0939477 L-25.470734,81.0708877 Z M-33.6703123,81.1936753 L-40.7048114,81.1936753 L-40.7048114,93.0939477 L-33.5165326,93.0939477 L-33.5165326,90.6938928 L-38.0622609,90.6938928 L-38.0622609,88.2558623 L-34.0160091,88.2558623 L-34.0160091,85.9254292 L-38.0622609,85.9266951 L-38.0622609,83.5772742 L-33.6703123,83.5772742 L-33.6703123,81.1936753 Z M-48.136767,81.1948609 L-53.0170743,81.1936753 L-53.0170743,93.0939477 L-50.3585307,93.0939477 L-50.3573004,89.266012 L-48.4233668,89.266012 L-48.2074392,89.3978071 L-46.2458461,93.0939477 L-43.2465267,93.0939477 L-45.8373585,88.738097 L-45.6179002,88.6084645 C-45.0351633,88.264246 -44.5843195,87.8058732 -44.2617644,87.2305926 C-43.939148,86.6552025 -43.7779893,86.0195437 -43.7779893,85.3190862 C-43.7779893,84.5017063 -43.9615308,83.785169 -44.3278533,83.1643478 C-44.6943837,82.5431742 -45.2027996,82.0615588 -45.8573415,81.7164646 C-46.3510227,81.4561811 -46.8996854,81.293127 -47.5007402,81.2279022 L-47.8056216,81.2034449 L-48.136767,81.1948609 Z M-11.5087224,81.1936753 L-19.9899809,81.1936753 L-19.9899809,83.5949961 L-17.0792386,83.5949961 L-17.0792386,93.0939477 L-14.4194647,93.0939477 L-14.4194647,83.5949961 L-11.5087224,83.5949961 L-11.5087224,81.1936753 Z M59.5759505,81.0708877 L58.5081042,81.0708877 L52.9683439,93.0939477 L55.9184539,93.0939477 L56.5271949,91.6682547 L56.752555,91.5166964 L61.2995135,91.5166964 L61.5239367,91.6660825 L62.1471473,93.0939477 L65.0751129,93.0939477 L59.5759505,81.0708877 Z M51.3763722,81.1936753 L44.3418731,81.1936753 L44.3418731,93.0939477 L51.5313821,93.0939477 L51.5313821,90.6938928 L46.9844236,90.6938928 L46.9844236,88.2558623 L51.0319056,88.2558623 L51.0319056,85.9254292 L46.9844236,85.9266951 L46.9844236,83.5772742 L51.3763722,83.5772742 L51.3763722,81.1936753 Z M23.4442074,81.1948737 L18.9078509,81.1936753 L18.9078509,93.0939477 L23.4498884,93.0939477 C24.6279347,93.0939477 25.6646203,92.8464741 26.5634061,92.3528667 C27.4578921,91.8616207 28.1499029,91.1664633 28.6435642,90.263437 C29.1388292,89.3574773 29.3870154,88.3132937 29.3870154,87.1267225 C29.3870154,85.952237 29.1389669,84.9171406 28.6438887,84.0171825 C28.1502557,83.1198516 27.4581413,82.4274051 26.5634061,81.9360222 C25.8646218,81.5522543 25.082621,81.3173191 24.2195484,81.2318619 L23.8447029,81.204391 L23.4442074,81.1948737 Z M15.8863429,81.1936753 L8.85184387,81.1936753 L8.85184387,93.0939477 L16.0413529,93.0939477 L16.0413529,90.6938928 L11.4943944,90.6938928 L11.4943944,88.2558623 L15.5418764,88.2558623 L15.5418764,85.9254292 L11.4943944,85.9266951 L11.4943944,83.5772742 L15.8863429,83.5772742 L15.8863429,81.1936753 Z M67.8751781,81.1594973 L66.9512696,81.1594973 L66.9512696,93.0939477 L69.6110435,93.0939477 L69.6110895,89.9139638 L69.5474073,86.5284633 L72.9228433,90.0812205 L72.9388364,90.0812205 L76.3367765,86.526818 L76.2518665,89.9090647 L76.2518665,93.0939477 L78.9116403,93.0939477 L78.9116403,81.1594973 L77.9877318,81.1594973 L72.9403771,86.6438853 L67.8751781,81.1594973 Z M23.4326651,83.5949961 C24.4391233,83.5949961 25.2370066,83.9105104 25.8089414,84.5442707 C26.3770717,85.1738153 26.6583483,86.0388926 26.6583483,87.1267225 C26.6583483,88.2258886 26.3774303,89.0993921 25.8097863,89.7348162 C25.2898805,90.3168019 24.5828808,90.633257 23.7020996,90.6859846 L23.4326651,90.6938928 L21.5676247,90.6938928 L21.5676247,83.5949961 L23.4326651,83.5949961 Z M-27.4989245,89.222973 L-25.9980731,85.223505 L-24.5654423,89.222973 L-27.4989245,89.222973 Z M57.54776,89.222973 L59.0486114,85.223505 L60.4812422,89.222973 L57.54776,89.222973 Z M-48.2855802,83.4886646 C-47.7332509,83.4886646 -47.2882888,83.6424179 -46.9633352,83.955881 C-46.6351587,84.2724531 -46.4722099,84.7090834 -46.4722099,85.2481985 C-46.4722099,85.7865638 -46.6346362,86.2252758 -46.9613756,86.5474658 C-47.2457726,86.8279028 -47.6226879,86.9835351 -48.0831502,87.0180613 L-48.2855802,87.0254544 L-50.3573004,87.0254544 L-50.3573004,83.4886646 L-48.2855802,83.4886646 Z M36.7611043,83.4886646 C37.3134336,83.4886646 37.7583957,83.6424179 38.0833493,83.955881 C38.4115258,84.2724531 38.5744747,84.7090834 38.5744747,85.2481985 C38.5744747,85.7865638 38.4120483,86.2252758 38.0853089,86.5474658 C37.8009119,86.8279028 37.4239966,86.9835351 36.9635343,87.0180613 L36.7611043,87.0254544 L34.6893841,87.0254544 L34.6893841,83.4886646 L36.7611043,83.4886646 Z" id="CREATIVEDREAMS" fill="#090909" fill-rule="nonzero" transform="translate(12.000000, 87.144444) rotate(-90.000000) translate(-12.000000, -87.144444) "></path>
    </g>
</svg>