<?xml version="1.0" encoding="UTF-8"?>
<svg width="16px" height="16px" viewBox="0 0 16 16" version="1.1" xmlns="http://www.w3.org/2000/svg" xmlns:xlink="http://www.w3.org/1999/xlink">
    <title>facebook</title>
    <g id="facebook" stroke="none" stroke-width="1" fill="none" fill-rule="evenodd">
        <g transform="translate(0.666667, 0.666667)" fill="#090909" fill-rule="nonzero" id="Path">
            <path d="M7.33333333,14.6666667 C11.3834215,14.6666667 14.6666667,11.3834215 14.6666667,7.33333333 C14.6666667,3.28324517 11.3834215,0 7.33333333,0 C3.28324517,0 0,3.28324517 0,7.33333333 C0,11.3834215 3.28324517,14.6666667 7.33333333,14.6666667 Z M7.33336912,1.33333333 C10.6469916,1.33333333 13.3333333,4.03090579 13.3333333,7.3567283 C13.3333333,10.3549192 11.1513857,12.8367385 8.29616626,13.3002074 L8.06321637,13.3333333 L8.06321637,8.614594 L9.50673498,8.614594 L9.72324846,6.93130649 L8.06321637,6.93130649 L8.06321637,5.85700681 C8.06321637,5.40225564 8.18005937,5.08280508 8.76127327,5.04223279 L8.89305348,5.03785959 L9.78050822,5.03742835 L9.78050822,3.5321007 L9.64622721,3.51747579 C9.41351895,3.49539612 8.97841347,3.46604855 8.48815538,3.46604855 C7.26424663,3.46604855 6.4096141,4.18408083 6.33761185,5.5068611 L6.3326832,5.69097802 L6.3326832,6.93216898 L4.88529955,6.93216898 L4.88529955,8.61545649 L6.3326832,8.61545649 L6.3326832,13.2930839 C3.49646401,12.8144754 1.33333333,10.3428746 1.33333333,7.35845327 C1.33333333,4.03090579 4.01967509,1.33333333 7.33336912,1.33333333 Z"></path>
        </g>
    </g>
</svg>